<svg id="Capa_1" enable-background="new 0 0 512.007 512.007" height="512" viewBox="0 0 512.007 512.007" width="512" xmlns="http://www.w3.org/2000/svg" xmlns:xlink="http://www.w3.org/1999/xlink"><linearGradient id="SVGID_1_" gradientUnits="userSpaceOnUse" x1="256.003" x2="256.003" y1="512.007" y2="0"><stop offset="0" stop-color="#fd5900"/><stop offset="1" stop-color="#ffde00"/></linearGradient><g><g><g><path d="m69.138 217.139c14.903 11.139 30.919 20.757 47.603 28.587 7.483 3.512 16.424.311 19.952-7.206 3.52-7.5.293-16.432-7.206-19.952-14.849-6.969-29.11-15.534-42.389-25.459-6.635-4.959-16.035-3.601-20.995 3.035s-3.601 16.036 3.035 20.995zm-40.606-39.121c7.654 3.17 16.428-.464 19.598-8.118s-.464-16.428-8.118-19.598-16.428.464-19.598 8.118c-3.17 7.653.464 16.427 8.118 19.598zm141.368-129.887c7.654-3.17 11.288-11.945 8.118-19.598-3.17-7.654-11.945-11.288-19.598-8.118-7.654 3.17-11.288 11.945-8.118 19.598 3.169 7.653 11.944 11.288 19.598 8.118zm-5.978 31.276c-8.195 1.213-13.855 8.84-12.642 17.035 2.727 18.422 7.283 36.548 13.541 53.874 2.805 7.767 11.388 11.835 19.203 9.013 7.792-2.814 11.827-11.412 9.013-19.203-5.58-15.451-9.645-31.627-12.08-48.077-1.214-8.196-8.844-13.856-17.035-12.642zm-135.39 254.582c-7.654 3.17-11.288 11.945-8.118 19.598 3.17 7.654 11.945 11.288 19.598 8.118 7.654-3.17 11.288-11.945 8.118-19.598s-11.944-11.288-19.598-8.118zm454.943-155.971c7.654-3.17 11.288-11.945 8.118-19.598-3.17-7.654-11.945-11.288-19.598-8.118-7.654 3.17-11.288 11.945-8.118 19.598s11.944 11.288 19.598 8.118zm-141.368-129.887c7.654 3.17 16.428-.464 19.598-8.118s-.464-16.428-8.118-19.598-16.428.464-19.598 8.118c-3.17 7.653.464 16.427 8.118 19.598zm-68.619 88.561c7.485 3.514 16.425.311 19.954-7.202 6.974-14.852 15.53-29.147 25.43-42.487 4.937-6.653 3.545-16.048-3.107-20.984-6.653-4.936-16.047-3.546-20.985 3.107-11.086 14.939-20.672 30.959-28.493 47.613-3.522 7.498-.298 16.432 7.201 19.953zm74.469 295.918c8.199-1.185 13.885-8.793 12.7-16.992-2.665-18.435-7.196-36.581-13.468-53.933-2.816-7.791-11.417-11.824-19.206-9.008-7.791 2.816-11.824 11.415-9.008 19.206 5.582 15.443 9.616 31.602 11.99 48.028 1.185 8.198 8.793 13.885 16.992 12.699zm155.754-190.023c-22.157-11.186-44.666-19.441-71.183-24.893-42.938-8.829-85.803-7.594-127.602 3.641-3.212-4.519-7.028-8.577-11.338-12.051 17.177-29.008 56.758-82.384 136.863-108.755 7.859-2.62 12.106-11.115 9.487-18.974-2.62-7.859-11.112-12.106-18.974-9.487-109.941 36.192-152.553 120.781-154.869 124.802-3.284-.559-6.652-.866-10.093-.866-2.214 0-4.398.13-6.551.365-11.016-43.684-14.398-105.925 19.968-174.656 3.705-7.41.701-16.42-6.708-20.125s-16.419-.701-20.125 6.708c-19.273 38.547-29.564 79.046-30.586 120.372-.655 26.488 2.46 52.826 9.257 78.468-4.488 3.2-8.519 6.997-11.973 11.282-28.976-17.158-82.406-56.77-108.755-136.863-2.62-7.859-11.114-12.107-18.974-9.487-7.859 2.62-12.107 11.114-9.487 18.974 36.195 109.986 120.891 152.616 124.802 154.87-.559 3.284-.866 6.652-.866 10.093 0 2.214.13 4.398.365 6.551-43.683 11.016-105.924 14.398-174.657-19.968-7.409-3.705-16.419-.701-20.125 6.708-3.705 7.41-.701 16.42 6.708 20.125 65.385 32.692 134.671 38.334 198.837 21.326 3.216 4.511 7.035 8.559 11.347 12.026-22.965 38.424-64.356 84.517-136.925 108.707-7.859 2.62-12.106 11.115-9.487 18.974 2.62 7.86 11.114 12.106 18.974 9.487 83.027-27.676 129.617-81.135 154.968-124.784 3.253.548 6.588.848 9.994.848 2.186 0 4.342-.125 6.468-.354 19.897 77.665-3.146 141.492-19.343 173.57l-.542 1.076c-5.024 10.048 2.385 21.712 13.405 21.712 10.29 0 13.783-9.118 13.917-9.266 4.159-8.237 16.815-33.303 24.404-70.21 8.83-42.939 7.595-85.805-3.64-127.604 4.541-3.227 8.615-7.064 12.1-11.399 38.424 22.965 84.517 64.356 108.706 136.925 2.62 7.859 11.114 12.107 18.974 9.487 7.859-2.62 12.107-11.115 9.487-18.974-27.676-83.027-81.135-129.617-124.784-154.968.548-3.253.848-6.588.848-9.994 0-2.186-.125-4.342-.354-6.468 32.745-8.389 98.988-18.185 174.646 19.884 7.41 3.706 16.421.7 20.125-6.708 3.704-7.412.701-16.422-6.709-20.127zm-247.708 43.417c-16.542 0-30-13.458-30-30s13.458-30 30-30 30 13.458 30 30-13.458 30-30 30zm-159.561 74.723c18.423-2.728 36.549-7.283 53.874-13.541 7.792-2.814 11.827-11.412 9.012-19.204-2.814-7.792-11.413-11.826-19.204-9.012-15.45 5.58-31.625 9.645-48.076 12.08-8.195 1.213-13.855 8.84-12.642 17.035 1.214 8.198 8.842 13.855 17.036 12.642zm73.458 103.149c-7.654-3.17-16.428.464-19.598 8.118s.464 16.428 8.118 19.598 16.428-.464 19.598-8.118c3.17-7.653-.465-16.427-8.118-19.598zm245.719-312.526c-18.435 2.665-36.581 7.196-53.933 13.468-7.791 2.816-11.824 11.415-9.008 19.206 2.807 7.768 11.392 11.832 19.206 9.008 15.443-5.582 31.602-9.616 48.028-11.99 8.199-1.185 13.885-8.793 12.7-16.992-1.187-8.199-8.791-13.886-16.993-12.7zm67.856 182.639c-7.654-3.17-16.428.464-19.598 8.118s.464 16.428 8.118 19.598 16.428-.464 19.598-8.118c3.17-7.653-.465-16.427-8.118-19.598zm-244.955 41.326c-7.5-3.52-16.432-.294-19.952 7.206-6.969 14.849-15.534 29.111-25.458 42.388-4.96 6.635-3.601 16.035 3.034 20.995 6.62 4.947 16.023 3.618 20.995-3.035 11.139-14.902 20.757-30.918 28.587-47.603 3.52-7.499.293-16.432-7.206-19.951zm204.361-80.535c-14.94-11.086-30.959-20.673-47.613-28.493-7.499-3.521-16.432-.297-19.954 7.202-3.521 7.499-.297 16.432 7.202 19.953 14.852 6.974 29.146 15.53 42.487 25.43 6.653 4.937 16.048 3.546 20.984-3.107 4.938-6.653 3.547-16.048-3.106-20.985zm-100.774 169.096c-7.654 3.17-11.288 11.945-8.118 19.598 3.17 7.654 11.945 11.288 19.598 8.118 7.654-3.17 11.288-11.945 8.118-19.598s-11.944-11.288-19.598-8.118z" fill="url(#SVGID_1_)"/></g></g></g></svg>